<svg width="77" height="38" viewBox="0 0 77 38" fill="none" xmlns="http://www.w3.org/2000/svg">
<path d="M4.99211 10.9228C4.97267 5.84062 8.26568 3.02212 14.3113 3.001C18.6618 2.98564 19.4394 5.79646 19.4394 6.81788C19.4394 8.77432 16.6362 10.8498 16.6362 10.8498C16.6362 10.8498 16.7918 12.069 19.1983 12.0594C21.6049 12.0498 23.9493 10.4812 23.9357 6.55484C23.924 2.04486 19.14 -0.017172 14.4104 0.000107672C10.4545 0.0135474 -0.0368374 0.562655 9.72708e-05 10.8498C0.035088 19.9869 17.4955 20.7933 17.5091 26.6434C17.5324 32.9965 10.3165 34.7072 7.87495 34.7072C5.43338 34.7072 4.44003 33.0004 4.43614 32.0634C4.41865 26.9179 9.6031 25.4856 9.6031 25.4856C9.6031 25.1016 9.29985 23.391 7.29177 23.3986C2.11898 23.4082 0.0584151 27.8011 0.0739666 32.0903C0.0875741 35.7382 2.69827 38.0153 6.64056 37.9999C14.1791 37.973 22.6799 34.3405 22.6488 26.2728C22.6216 18.7274 5.01349 16.7575 4.99211 10.9228Z" fill="white"/>
<path d="M76.8572 31.138C76.7969 30.994 76.6278 31.0285 76.4042 31.2109C75.5489 31.9079 73.5933 33.8816 69.0173 33.8989C60.674 33.9296 59.2257 20.3478 59.2257 20.3478C59.2257 20.3478 65.5843 15.6593 66.5777 13.7681C67.571 11.8769 64.4102 11.4641 64.4102 11.4641C64.4102 11.4641 59.9625 16.8093 56.8094 18.376C57.1515 16.0509 59.4843 10.7518 59.6184 7.70487C59.7525 4.6579 55.9035 5.40092 55.2893 5.69275C55.2893 7.02328 51.8893 19.1017 50.6511 25.741C49.9221 26.8929 48.8801 28.21 47.947 28.2119C47.4066 28.2119 47.2084 27.2232 47.2025 25.8062C47.2025 23.8402 48.2989 20.6895 48.2911 18.7753C48.2911 17.4506 47.6749 17.3719 47.1442 17.3738C47.0295 17.3738 46.3919 17.3911 46.2753 17.3911C44.9145 17.3911 45.3616 16.2391 44.1369 16.2506C40.3891 16.264 35.6148 20.3056 35.4068 26.4053C34.1413 27.2328 32.3703 28.2753 31.4664 28.2791C30.5178 28.2791 30.2826 27.4132 30.2806 26.6645C30.2806 25.3493 32.4345 17.5351 32.4345 17.5351C32.4345 17.5351 35.1774 16.84 36.3748 16.6116C37.2807 16.4368 37.5412 16.3716 37.893 15.9396C38.2449 15.5076 38.933 14.6148 39.489 13.8123C40.045 13.0097 39.4987 12.3896 38.4704 12.3934C37.1213 12.3934 33.5114 13.2382 33.5114 13.2382C33.5114 13.2382 35.2454 5.85403 35.2435 5.70427C35.2415 5.55452 35.0491 5.4758 34.7555 5.47772C34.0985 5.47772 32.9263 5.82715 32.176 6.0921C31.0271 6.49722 30.0921 7.88727 29.9035 8.53429C29.7149 9.18132 28.4164 14.2481 28.4164 14.2481C28.4164 14.2481 21.463 16.6192 20.5124 16.9744C20.484 16.984 20.4594 17.0021 20.442 17.0262C20.4246 17.0503 20.4152 17.0792 20.4152 17.1088C20.4152 17.1703 21.2103 20.1808 22.8412 20.1692C24.0076 20.1692 27.4347 18.783 27.4347 18.783C27.4347 18.783 25.6735 25.6949 25.6852 27.9988C25.6852 29.4772 26.3908 31.209 29.3145 31.1994C32.036 31.1994 34.4173 29.8113 35.7508 28.8455C36.4798 30.6676 38.2021 31.1668 39.3782 31.1629C42.0142 31.1629 44.0436 29.0855 44.3041 28.8071C44.6463 29.6058 45.453 31.1399 47.2958 31.1341C48.3378 31.1341 49.4167 29.9821 50.2117 28.8647C50.1967 29.0969 50.1999 29.33 50.2214 29.5617C50.5402 32.4263 54.846 30.7424 55.0813 30.3431C55.2271 28.2715 55.1357 24.036 55.9735 21.4211C57.0855 30.3412 61.3038 36.341 68.887 36.3142C73.1268 36.2988 75.302 35.095 76.202 34.1024C76.5634 33.7075 76.814 33.2262 76.9289 32.7062C77.0438 32.1862 77.0191 31.6456 76.8572 31.138ZM40.4726 28.1966C36.8317 28.21 41.5865 18.8886 44.6929 18.8771C44.6968 20.079 44.6288 28.1831 40.4726 28.1966Z" fill="white"/>
<path d="M70.032 31.0534C73.3192 31.0419 75.8638 28.905 76.3303 28.21C76.933 27.3057 75.6305 25.9406 75.2165 25.9636C74.1784 26.9447 73.0937 28.1313 70.658 28.139C67.7907 28.1505 68.4399 25.0344 68.4399 25.0344C68.4399 25.0344 73.9588 25.739 76.1768 21.8204C76.8863 20.5666 76.9155 18.8329 76.6297 18.086C76.3439 17.3392 74.7383 15.9568 72.1839 16.1661C69.0464 16.4272 65.0925 19.6585 64.2236 23.5387C63.5257 26.6606 64.8456 31.0726 70.032 31.0534ZM73.5311 17.9785C74.0482 17.9613 74.0015 18.8022 73.8635 19.6815C73.6691 20.8738 72.0109 23.9054 68.8462 23.7864C69.0659 22.022 71.42 18.0477 73.5369 17.9785H73.5311Z" fill="white"/>
</svg>
